<svg width="14" height="14" viewBox="0 0 14 14" fill="none" xmlns="http://www.w3.org/2000/svg">
<path d="M6.99998 0.666504C7.38198 0.668504 7.72998 0.884504 7.89998 1.2265L9.40731 4.25317C9.41398 4.25984 9.42065 4.2665 9.42665 4.2665L12.8013 4.75317C13.0653 4.7905 13.3046 4.92917 13.468 5.13984C13.7686 5.5425 13.7226 6.1045 13.3613 6.45317L10.9146 8.81984C10.9146 8.81984 10.91 8.8245 10.91 8.8265C10.91 8.8285 10.91 8.8265 10.9146 8.83317L11.5013 12.1732C11.5813 12.7165 11.2106 13.2245 10.668 13.3132C10.616 13.3205 10.5626 13.3252 10.51 13.3252C10.3446 13.3258 10.1813 13.2852 10.0353 13.2065L7.02131 11.6332C7.01198 11.6325 7.00265 11.6352 6.99465 11.6398L3.95998 13.2265C3.81998 13.2972 3.66398 13.3338 3.50665 13.3332C3.13331 13.3338 2.78998 13.1285 2.61398 12.7998C2.50931 12.6065 2.47131 12.3838 2.50665 12.1665L3.10065 8.83984C3.10065 8.8325 3.09865 8.82517 3.09331 8.81984L0.626646 6.4465C0.439313 6.26384 0.33398 6.01317 0.333313 5.75117C0.333313 5.47517 0.44398 5.2105 0.640646 5.01784C0.79598 4.87784 0.98798 4.78584 1.19398 4.75117L4.56065 4.2645C4.57398 4.2645 4.58798 4.2585 4.58798 4.2445L6.09331 1.2265C6.21198 0.987171 6.42065 0.805837 6.67331 0.719837C6.77865 0.683837 6.88931 0.666504 6.99998 0.666504ZM6.99998 1.63984H6.98731L6.98065 1.6445C6.97465 1.64784 6.97065 1.65317 6.96731 1.65917L5.45998 4.67917C5.31465 4.97584 5.03398 5.18184 4.70731 5.2325L1.35398 5.71317L1.31331 5.7265C1.30798 5.73517 1.30665 5.74384 1.30731 5.75384L3.77398 8.1205C4.00865 8.35117 4.11531 8.6825 4.06065 9.00717L3.47398 12.3272V12.3405C3.47731 12.3538 3.48931 12.3632 3.50331 12.3632H3.51398L6.53331 10.7798C6.68131 10.7012 6.84665 10.6592 7.01398 10.6592C7.17665 10.6585 7.33665 10.6985 7.48065 10.7732L10.4806 12.3398H10.4866C10.4926 12.3432 10.4993 12.3458 10.506 12.3465C10.5086 12.3478 10.5113 12.3478 10.514 12.3465H10.528L10.5413 12.3338L9.95398 9.01317C9.88931 8.68584 9.99798 8.3485 10.2413 8.1205L12.688 5.74784L12.6946 5.73317L12.688 5.72717H12.6786C12.6733 5.7245 12.6673 5.72317 12.6613 5.72317L9.28665 5.2325C8.95998 5.1825 8.67865 4.97584 8.53398 4.67917L7.02731 1.6665C7.02798 1.6605 7.02598 1.65517 7.02198 1.65117C7.01731 1.64717 7.01198 1.64584 7.00598 1.64584L6.99998 1.63984Z" fill="#E0E0E0"/>
</svg>
