<svg width="14" height="14" viewBox="0 0 14 14" fill="none" xmlns="http://www.w3.org/2000/svg">
<path d="M10.9457 8.54699C10.773 8.71432 10.6937 8.95632 10.733 9.19366L11.3257 12.4737C11.3757 12.7517 11.2584 13.033 11.0257 13.1937C10.7977 13.3603 10.4944 13.3803 10.2457 13.247L7.29302 11.707C7.19035 11.6523 7.07635 11.623 6.95968 11.6197H6.77902C6.71635 11.629 6.65502 11.649 6.59902 11.6797L3.64568 13.227C3.49968 13.3003 3.33435 13.3263 3.17235 13.3003C2.77768 13.2257 2.51435 12.8497 2.57902 12.453L3.17235 9.17299C3.21168 8.93366 3.13235 8.69032 2.95968 8.52032L0.55235 6.18699C0.351017 5.99166 0.281017 5.69833 0.373017 5.43366C0.46235 5.16966 0.69035 4.97699 0.965683 4.93366L4.27902 4.45299C4.53102 4.42699 4.75235 4.27366 4.86568 4.04699L6.32568 1.05366C6.36035 0.986992 6.40502 0.925659 6.45902 0.873659L6.51902 0.826992C6.55035 0.792326 6.58635 0.763659 6.62635 0.740326L6.69902 0.713659L6.81235 0.666992H7.09302C7.34368 0.692992 7.56435 0.842992 7.67968 1.06699L9.15902 4.04699C9.26568 4.26499 9.47302 4.41633 9.71235 4.45299L13.0257 4.93366C13.3057 4.97366 13.5397 5.16699 13.6323 5.43366C13.7197 5.70099 13.6444 5.99433 13.439 6.18699L10.9457 8.54699Z" fill="#FCBB3C"/>
</svg>
